<svg version="1.1" id="Layer_1" xmlns="http://www.w3.org/2000/svg" xmlns:xlink="http://www.w3.org/1999/xlink"><g class="x axis" transform="translate(0,336)"><g class="tick" style="opacity: 1;" transform="translate(76.45070100010122,0)"><line y2="5" x2="0"></line><text dy=".71em" style="text-anchor: middle;" y="8" x="0">1950</text></g><g class="tick" style="opacity: 1;" transform="translate(164.587525865402,0)"><line y2="5" x2="0"></line><text dy=".71em" style="text-anchor: middle;" y="8" x="0">1960</text></g><g class="tick" style="opacity: 1;" transform="translate(252.74848458198022,0)"><line y2="5" x2="0"></line><text dy=".71em" style="text-anchor: middle;" y="8" x="0">1970</text></g><g class="tick" style="opacity: 1;" transform="translate(340.8853094472811,0)"><line y2="5" x2="0"></line><text dy=".71em" style="text-anchor: middle;" y="8" x="0">1980</text></g><g class="tick" style="opacity: 1;" transform="translate(429.0462681638593,0)"><line y2="5" x2="0"></line><text dy=".71em" style="text-anchor: middle;" y="8" x="0">1990</text></g><g class="tick" style="opacity: 1;" transform="translate(517.1830930291601,0)"><line y2="5" x2="0"></line><text dy=".71em" style="text-anchor: middle;" y="8" x="0">2000</text></g><g class="tick" style="opacity: 1;" transform="translate(605.3440517457384,0)"><line y2="5" x2="0"></line><text dy=".71em" style="text-anchor: middle;" y="8" x="0">2010</text></g><path class="domain" d="M50,5V0H656V5"></path></g><g class="y axis" transform="translate(50,0)"><g class="tick" style="opacity: 1;" transform="translate(0,305.02188966448495)"><line x2="-5" y2="0"></line><text dy=".32em" style="text-anchor: end;" x="-8" y="0">2,000</text></g><g class="tick" style="opacity: 1;" transform="translate(0,269.7573779273172)"><line x2="-5" y2="0"></line><text dy=".32em" style="text-anchor: end;" x="-8" y="0">4,000</text></g><g class="tick" style="opacity: 1;" transform="translate(0,234.49286619014939)"><line x2="-5" y2="0"></line><text dy=".32em" style="text-anchor: end;" x="-8" y="0">6,000</text></g><g class="tick" style="opacity: 1;" transform="translate(0,199.2283544529816)"><line x2="-5" y2="0"></line><text dy=".32em" style="text-anchor: end;" x="-8" y="0">8,000</text></g><g class="tick" style="opacity: 1;" transform="translate(0,163.9638427158138)"><line x2="-5" y2="0"></line><text dy=".32em" style="text-anchor: end;" x="-8" y="0">10,000</text></g><g class="tick" style="opacity: 1;" transform="translate(0,128.699330978646)"><line x2="-5" y2="0"></line><text dy=".32em" style="text-anchor: end;" x="-8" y="0">12,000</text></g><g class="tick" style="opacity: 1;" transform="translate(0,93.43481924147822)"><line x2="-5" y2="0"></line><text dy=".32em" style="text-anchor: end;" x="-8" y="0">14,000</text></g><g class="tick" style="opacity: 1;" transform="translate(0,58.17030750431043)"><line x2="-5" y2="0"></line><text dy=".32em" style="text-anchor: end;" x="-8" y="0">16,000</text></g><g class="tick" style="opacity: 1;" transform="translate(0,22.905795767142628)"><line x2="-5" y2="0"></line><text dy=".32em" style="text-anchor: end;" x="-8" y="0">18,000</text></g><path class="domain" d="M-5,20H0V336H-5"></path></g><path d="M656,20L653.7796856824733,21.844333963853835L651.583505216224,24.427459448601383L649.4124641783886,29.08942790025499L647.1911442837254,29.67834524626567L644.9708299661987,31.332250846738866L642.7746494999494,35.77734255120886L640.603608462114,40.81487805286329L638.3822885674508,41.28565928455449L636.1619742499241,45.34284135991561L633.9657937836748,48.88163511274044L631.7947527458396,50.399772343025504L629.5734328511762,52.92823783458047L627.3531185336495,54.151916391860155L625.1569380674002,56.02093551393005L622.9617631782876,58.6305093824805L620.7404432836241,61.9559528392954L618.5201289660976,65.4506659524487L616.3239484998481,67.67585664306401L614.152907462013,71.59903357382395L611.9315875673495,71.74361807194629L609.711273249823,74.78518220927702L607.5150927835736,77.76679667665456L605.3440517457384,81.42548976938572L603.1227318510751,83.44614629192546L600.9024175335483,86.66226976235517L598.7062370672991,87.43279934381226L596.5351960294638,86.66579621352888L594.3138761348005,83.73884173934395L592.0935618172737,78.57082754426199L589.8973813510245,79.09979522031952L587.7022064619117,81.64941941891675L585.4808865672484,81.35143429473769L583.2605722497216,83.38972307314596L581.0643917834724,85.98871758817528L578.8933507456371,89.32297717292447L576.6720308509738,92.26403745180426L574.451716533447,95.04817065345364L572.2565416443343,96.96479686636874L570.0844950293625,99.62550427693805L567.8631751346993,104.33860627061051L565.6428608171725,107.44540975465497L563.4476859280597,111.52375053705845L561.2756393130879,114.35196437837928L559.0543194184247,118.78647672932814L556.8340051008979,122.2159504957677L554.6388302117851,125.5008397640849L552.4426497455358,128.9038651467216L550.2213298508725,131.9295602537706L548.0010155333458,135.3096637037781L545.8058406442331,139.79530959674582L543.6337940292613,142.27440477186875L541.4124741345979,144.50135868807092L539.1921598170712,145.67743015450543L536.9969849279585,147.4812099298616L534.8249383129867,149.25148841906739L532.6036184183233,151.59834167517593L530.3833041007966,152.6880150878544L528.1881292116839,152.70741056930987L526.0160825967121,155.00489350898633L523.7947627020487,155.63612826908164L521.574448384522,157.66207446838192L519.3792734954094,159.05678590758689L517.1830930291601,163.4172427838877L514.9617731344969,165.26686642450213L512.7414588169701,169.0366427292054L510.5462839278573,171.77493206559646L508.3742373128855,173.7127169855538L506.1529174182222,175.8532728479999L503.9326031006954,179.01297309965017L501.7374282115827,181.6895495405012L499.5653815966109,183.54093640670249L497.3440617019476,185.32884715177696L495.1237473844208,187.03035984309525L492.9285724953082,189.49711243911014L490.7565258803363,192.138424368224L488.53520598567303,194.16613379311113L486.31489166814623,196.42482576987672L484.1197167790336,198.1439707170637L481.9235363127842,201.1132426053332L479.70221641812094,202.76362175463265L477.48190210059425,204.40342155041094L475.2867272114815,206.1948587466591L473.11468059650963,207.2457411964267L470.8933607018464,208.45531394901153L468.67304638431966,210.6487665790634L466.4778714952069,212.10342768822153L464.30582488023504,214.4573338466775L462.0845049855718,216.2822723290759L459.86419066804507,218.54978043377585L457.6690157789323,219.86514672157222L455.49696916396044,221.30041234927495L453.2756492692972,222.19260449622524L451.0553349517705,224.1515481232249L448.8601600626577,225.81250662604552L446.66397959640847,227.77850315539266L444.44265970174513,229.5681771260539L442.2223453842184,230.64198150845064L440.0271704951057,231.96087424742072L437.8551238801339,233.52485534296412L435.63380398547054,234.0820346284114L433.41348966794385,233.97271464202615L431.2183147788311,234.93896226362455L429.0462681638593,236.41830853099873L426.82494826919606,238.66465792865634L424.60463395166926,239.578008782649L422.4094590625565,241.04501247091514L420.2374124475847,242.82587031364216L418.01609255292146,244.84829006176872L415.79577823539466,246.8442614260924L413.6006033462819,248.4629025148284L411.40442288003266,250.5276396770396L409.1831029853694,251.72486985051643L406.9627886678426,253.8795315176574L404.7676137787299,255.27247973127547L402.59556716375806,256.7765111568657L400.3742472690948,257.9543458488871L398.153932951568,258.8324321911426L395.95875806245533,259.9679494690794L393.78671144748347,260.6538442223673L391.56539155282013,261.76820279326176L389.3450772352934,262.799689761574L387.14990234618074,264.4271469782442L384.9778557312089,265.57853328646274L382.7565358365456,267.1548569611142L380.5362215190189,268.21631876440296L378.34104662990615,269.49289408928837L376.14486616365684,271.29491063905766L373.9235462689935,273.3525948989214L371.7032319514668,275.18282305808043L369.5080570623541,277.09592281982174L367.33601044738225,278.9208613022202L365.1146905527189,280.1991998526926L362.8943762351922,280.9168326665439L360.6992013460795,281.5480674266392L358.5271547311077,282.56192213908275L356.3058348364443,282.39088925715754L354.0855205189177,282.78408856302696L351.8903456298049,284.439757389087L349.7182990148331,285.06570247242166L347.4969791201698,287.50424345904685L345.27666480264304,289.8581496175028L343.0814899135304,290.91784819520467L340.8853094472811,290.97779786515787L338.66398955261775,292.1380003013107L336.443675235091,293.2012253301863L334.2485003459783,294.51482839239577L332.0764537310065,295.6485824447458L329.85513383634316,296.5196158846538L327.63481951881636,297.98838279850685L325.43964462970365,299.0868723391196L323.2675980147319,301.3420378647115L321.04627812006856,302.04732809945483L318.8259638025418,302.8637015461703L316.63078891342906,303.9604278611962L314.45874229845725,305.1541315834993L312.23742240379397,306.1080366259897L310.0171080862672,306.9526216820949L307.82193319715446,307.5450654792793L305.6257527309052,308.1163505694214L303.40443283624194,309.14960076332045L301.1841185187152,310.0682412940737L298.98793805246595,311.08033278093035L296.8168970146306,311.7291997968943L294.59557711996734,312.02189524431276L292.3752628024406,312.7201325767087L290.1790823361913,313.2349944480713L288.00804129835603,313.9314685548804L285.78672140369275,314.2065317464303L283.566407086166,314.9523761696714L281.3712321970533,315.2909154823482L279.1991855820815,315.94154572389897L276.97786568741816,316.800236584699L274.7575513698914,317.4737887588789L272.5623764807787,317.89167322296436L270.3661960145294,318.53172411099393L268.1448761198661,319.240540796911L265.9245618023394,319.4750497999632L263.7293869132267,319.8435639476166L261.5573402982548,320.224420674378L259.33602040359153,321.0407941210934L257.1157060860648,321.0936908886992L254.92053119695208,321.4181243966811L252.74848458198022,321.7108198440996L250.52716468731694,321.9365127192175L248.3068503697902,322.08991334527417L246.11066990354092,322.45313781616704L243.93962886570569,322.73525391006433L241.71830897104235,323.1813499835395L239.4979946535156,323.4952041380003L237.30181418726633,323.7773202318976L235.10663929815362,324.221653079786L232.8853194034903,324.7135930185195L230.66500508596354,325.0062884659379L228.4688246197143,325.279588431901L226.29778358187903,325.36951293683074L224.07646368721575,325.56523097697203L221.856149369689,325.8138457847191L219.6599689034397,326.0536444645318L217.48892786560444,326.2282037976308L215.26760797094116,326.65490438965054L213.04729365341439,327.0586830490411L210.8511131871651,327.3725372035019L208.68007214932985,327.6052829809672L206.45875225466656,327.9720339030338L204.2384379371398,328.07077453589784L202.04225747089055,328.2823616063209L199.8470825817778,328.45339448824615L197.6257626871145,328.740800258904L195.40544836958776,328.91359636641613L193.20926790333849,329.14634214388144L191.03822686550325,329.30679567228555L188.81690697083994,329.476065328624L186.59659265331317,329.53777822416396L184.4004121870639,329.6612040152441L182.22937114922863,329.7916827086716L180.00805125456532,330.03148138848434L177.78773693703857,330.2677536171234L175.59155647078933,330.4581819805041L173.42051543295406,330.6609529229928L171.19919553829072,330.745587751162L168.978881220764,330.6591896974059L166.78270075451474,330.71737614177226L164.587525865402,330.70679678825115L162.3662059707387,330.95364837041126L160.14589165321195,331.02594061947246L157.94971118696267,331.04357287534106L155.7786701491274,331.2745554272195L153.5573502544641,331.46322056501333L151.33703593693735,331.70478247041297L149.1408554706881,331.9498708269863L146.96981443285284,332.0274527528081L144.74849453818953,331.89873728496735L142.5281802206628,331.81762890797194L140.33199975441352,331.9498708269863L138.16095871657825,331.98866178989715L135.93963882191494,332.15264176947494L133.7193245043882,332.31662174905284L131.52314403813892,332.4083094795695L129.32796914902622,332.51939269154155L127.1066492543629,332.56699978238674L124.88633493683614,332.68866234788L122.69015447058688,332.84206297393666L120.51911343275162,332.9901739232327L118.29779353808831,333.22820937745865L116.07747922056157,333.38161000351533L113.88129875431228,333.46800805727133L111.71025771647703,333.4821138619662L109.48893782181372,333.4715345084451L107.26862350428698,333.37984677792844L105.0724430380377,333.36926742440727L102.90140200020244,333.4362699967079L100.68008210553913,333.56498546454856L98.4597677880124,333.795968016427L96.26358732176311,333.9141041307465L94.06841243265039,333.93526283778885L91.8470925379871,333.99873895891574L89.62677822046035,334.0833737870849L87.43059775421106,334.21208925492556L85.25955671637581,334.35491052746113L83.0382368217125,334.6387898469453L80.81792250418576,334.8468504661946L78.62174203793647,335.1607046206554L76.45070100010122,335.3282110514069L74.22938110543792,335.50806006126646L72.00906678791117,335.4675058727688L69.81288632166189,335.4957174821585L67.64184528382663,335.43047813544473L65.42052538916332,335.33702717934125L63.20021107163659,335.3581858863835L61.0040306053873,335.4745587751162L58.808855716274586,335.5926948894357L56.58753582161128,335.6967251990604L54.36722150408454,335.8765742089199L52.17104103783525,335.94357678122054L50,336" stroke="blue" stroke-width="2" fill="none"></path></svg>
